<svg xmlns="http://www.w3.org/2000/svg" version="1.1" xmlns:xlink="http://www.w3.org/1999/xlink" width="1000" height="1000"><g clip-path="url(#SvgjsClipPath1342)"><rect width="1000" height="1000" fill="#000000"></rect><g transform="matrix(10,0,0,10,0,0)"><svg xmlns="http://www.w3.org/2000/svg" width="100" height="100" viewBox="0 0 100 100" fill="none"><rect width="100" height="100" fill="black"></rect><rect width="100" height="100" fill="url(#paint0_linear_4_23)" fill-opacity="0.44"></rect><g clip-path="url(#clip0_4_23)">
<path d="M6 50C6 38.3305 10.6357 27.1389 18.8873 18.8873C27.1389 10.6357 38.3305 6 50 6C61.6695 6 72.8611 10.6357 81.1127 18.8873C89.3643 27.1389 94 38.3305 94 50C94 61.6695 89.3643 72.8611 81.1127 81.1127C72.8611 89.3643 61.6695 94 50 94C38.3305 94 27.1389 89.3643 18.8873 81.1127C10.6357 72.8611 6 61.6695 6 50ZM47.25 11.9235C43.565 13.0455 39.9075 16.4335 36.8715 22.126C35.8718 24.0188 35.0115 25.982 34.2975 28H47.25V11.9235ZM28.495 28C29.4126 25.0788 30.5907 22.246 32.015 19.5355C32.9722 17.741 34.0702 16.0251 35.2985 14.404C28.4848 17.2314 22.6222 21.949 18.4025 28H28.495ZM25.294 47.25C25.459 42.4265 26.053 37.801 27.01 33.5H15.207C13.1613 37.8196 11.9377 42.4824 11.599 47.25H25.294ZM32.6585 33.5C31.5767 38.0089 30.9539 42.6157 30.7995 47.25H47.25V33.5H32.6585ZM52.75 33.5V47.25H69.195C69.0424 42.6159 68.4214 38.0091 67.3415 33.5H52.75ZM30.805 52.75C30.9576 57.3841 31.5786 61.9909 32.6585 66.5H47.25V52.75H30.805ZM52.75 52.75V66.5H67.3415C68.37 62.2925 69.0245 57.656 69.2005 52.75H52.75ZM34.2975 72C35.0602 74.1267 35.9182 76.0847 36.8715 77.874C39.9075 83.5665 43.5705 86.949 47.25 88.0765V72H34.2975ZM35.2985 85.596C34.0702 83.9749 32.9722 82.259 32.015 80.4645C30.5907 77.754 29.4126 74.9212 28.495 72H18.4025C22.6153 78.0574 28.48 82.7766 35.2985 85.596ZM27.01 66.5C26.0169 61.9791 25.4425 57.3763 25.294 52.75H11.599C11.94 57.645 13.1995 62.2815 15.207 66.5H27.01ZM64.7015 85.596C71.52 82.7766 77.3847 78.0574 81.5975 72H71.505C70.5874 74.9212 69.4093 77.754 67.985 80.4645C67.0278 82.259 65.9298 83.9749 64.7015 85.596ZM52.75 72V88.0765C56.435 86.9545 60.0925 83.5665 63.1285 77.874C64.0818 76.0883 64.9398 74.1303 65.7025 72H52.75ZM72.99 66.5H84.793C86.8005 62.2815 88.06 57.645 88.401 52.75H74.706C74.5575 57.3763 73.9831 61.9791 72.99 66.5ZM88.401 47.25C88.0623 42.4824 86.8387 37.8196 84.793 33.5H72.99C73.947 37.801 74.541 42.4265 74.706 47.25H88.401ZM67.985 19.5355C69.3435 22.0875 70.526 24.9255 71.505 28H81.5975C77.3847 21.9426 71.52 17.2234 64.7015 14.404C65.9005 15.966 67.0005 17.693 67.985 19.5355ZM65.7025 28C64.9885 25.982 64.1282 24.0188 63.1285 22.126C60.0925 16.4335 56.435 13.051 52.75 11.9235V28H65.7025Z" fill="white"></path>
</g><defs>
<linearGradient id="paint0_linear_4_23" x1="50" y1="0" x2="50" y2="100" gradientUnits="userSpaceOnUse">
<stop stop-color="#3300FF"></stop>
<stop offset="1"></stop>
</linearGradient>
<clipPath id="clip0_4_23">
<rect width="88" height="88" fill="white" transform="translate(6 6)"></rect>
</clipPath>
<clipPath id="SvgjsClipPath1342"><rect width="1000" height="1000" x="0" y="0" rx="150" ry="150"></rect></clipPath></defs></svg></g></g></svg>